<svg version="1.1" id="Layer_1" xmlns="http://www.w3.org/2000/svg" xmlns:xlink="http://www.w3.org/1999/xlink" x="0px" y="0px"
	 width="100%" viewBox="0 0 181 185" enable-background="new 0 0 181 185" xml:space="preserve">
<path fill="#0289F1" opacity="1.000000" stroke="none" 
	d="
M108.000000,186.000000 
	C72.000000,186.000000 36.500004,186.000000 1.000005,186.000000 
	C1.000003,124.333336 1.000003,62.666679 1.000002,1.000013 
	C61.333324,1.000009 121.666649,1.000009 181.999969,1.000004 
	C181.999985,62.666653 181.999985,124.333305 182.000000,185.999969 
	C157.500000,186.000000 133.000000,186.000000 108.000000,186.000000 
M67.112228,170.489716 
	C84.970024,175.780365 103.080650,176.150742 119.793213,168.025299 
	C129.768417,163.175476 136.376465,164.116989 143.117371,171.996002 
	C143.884125,172.892227 145.896927,173.656631 146.881775,173.285995 
	C155.705231,169.965210 164.427734,166.376190 173.913742,162.571747 
	C166.295715,156.626312 159.280975,151.151703 152.274628,145.683640 
	C179.153809,111.921051 174.797348,70.766724 154.457581,44.447060 
	C133.343140,17.124941 96.992157,6.098134 64.426392,17.362396 
	C31.384058,28.791500 9.785896,59.428059 10.038626,94.510353 
	C10.287345,129.035934 32.805256,159.316193 67.112228,170.489716 
z"/>
<path fill="#FDFEFF" opacity="1.000000" stroke="none" 
	d="
M66.731522,170.362061 
	C32.805256,159.316193 10.287345,129.035934 10.038626,94.510353 
	C9.785896,59.428059 31.384058,28.791500 64.426392,17.362396 
	C96.992157,6.098134 133.343140,17.124941 154.457581,44.447060 
	C174.797348,70.766724 179.153809,111.921051 152.274628,145.683640 
	C159.280975,151.151703 166.295715,156.626312 173.913742,162.571747 
	C164.427734,166.376190 155.705231,169.965210 146.881775,173.285995 
	C145.896927,173.656631 143.884125,172.892227 143.117371,171.996002 
	C136.376465,164.116989 129.768417,163.175476 119.793213,168.025299 
	C103.080650,176.150742 84.970024,175.780365 66.731522,170.362061 
M83.873718,122.629471 
	C79.642815,119.096840 75.411903,115.564209 71.181000,112.031578 
	C71.350342,111.421135 71.519691,110.810699 71.689034,110.200256 
	C81.963127,110.200256 92.240280,110.067307 102.508942,110.303467 
	C104.780838,110.355721 107.323158,111.270782 109.218330,112.558022 
	C113.709206,115.608307 117.886414,119.120399 122.437141,122.636436 
	C131.775024,110.589867 134.803894,97.624619 131.961334,83.258858 
	C127.743324,61.941906 107.718842,46.281147 87.353867,48.315205 
	C66.478447,50.400246 50.990124,66.385185 48.299648,88.621666 
	C45.861481,108.772850 58.748489,129.507080 77.774780,135.713211 
	C84.874199,138.028946 92.139320,138.916397 100.126762,136.301453 
	C94.553467,131.610672 89.487404,127.346802 83.873718,122.629471 
z"/>
<path fill="#0389F1" opacity="1.000000" stroke="none" 
	d="
M84.147530,122.856201 
	C89.487404,127.346802 94.553467,131.610672 100.126762,136.301453 
	C92.139320,138.916397 84.874199,138.028946 77.774780,135.713211 
	C58.748489,129.507080 45.861481,108.772850 48.299648,88.621666 
	C50.990124,66.385185 66.478447,50.400246 87.353867,48.315205 
	C107.718842,46.281147 127.743324,61.941906 131.961334,83.258858 
	C134.803894,97.624619 131.775024,110.589867 122.437141,122.636436 
	C117.886414,119.120399 113.709206,115.608307 109.218330,112.558022 
	C107.323158,111.270782 104.780838,110.355721 102.508942,110.303467 
	C92.240280,110.067307 81.963127,110.200256 71.689034,110.200256 
	C71.519691,110.810699 71.350342,111.421135 71.181000,112.031578 
	C75.411903,115.564209 79.642815,119.096840 84.147530,122.856201 
z"/>
</svg>